<mxfile host="app.diagrams.net" agent="Mozilla/5.0 (Windows NT 10.0; Win64; x64) AppleWebKit/537.36 (KHTML, like Gecko) Chrome/141.0.0.0 Safari/537.36" version="28.2.8">
  <diagram name="Page-1" id="aaaa8250-4180-3840-79b5-4cada1eebb92">
    <mxGraphModel dx="1226" dy="676" grid="1" gridSize="10" guides="1" tooltips="1" connect="1" arrows="1" fold="1" page="1" pageScale="1" pageWidth="850" pageHeight="1100" background="none" math="0" shadow="0">
      <root>
        <mxCell id="0" />
        <mxCell id="1" parent="0" />
        <mxCell id="6FY976Fx_J-TKB5thQEg-27" value="" style="rounded=1;whiteSpace=wrap;html=1;" vertex="1" parent="1">
          <mxGeometry x="100" y="110" width="777" height="394.5" as="geometry" />
        </mxCell>
        <mxCell id="6FY976Fx_J-TKB5thQEg-13" value="AWS" style="ellipse;shape=cloud;whiteSpace=wrap;html=1;" vertex="1" parent="1">
          <mxGeometry x="140" y="130" width="190" height="140" as="geometry" />
        </mxCell>
        <mxCell id="6FY976Fx_J-TKB5thQEg-1" value="D - EBS" style="outlineConnect=0;dashed=0;verticalLabelPosition=bottom;verticalAlign=top;align=center;html=1;shape=mxgraph.aws3.volume;fillColor=#E05243;gradientColor=none;" vertex="1" parent="1">
          <mxGeometry x="350" y="366.25" width="52.5" height="75" as="geometry" />
        </mxCell>
        <mxCell id="6FY976Fx_J-TKB5thQEg-2" value="" style="verticalLabelPosition=bottom;aspect=fixed;html=1;shape=mxgraph.salesforce.web;fillColorStyles=fillColor2,fillColor3,fillColor4;fillColor2=#032d60;fillColor3=#0d9dda;fillColor4=#ffffff;fillColor=none;strokeColor=none;" vertex="1" parent="1">
          <mxGeometry x="205" y="532.3" width="60" height="47.400000000000006" as="geometry" />
        </mxCell>
        <mxCell id="6FY976Fx_J-TKB5thQEg-3" value="Actor" style="shape=umlActor;verticalLabelPosition=bottom;verticalAlign=top;html=1;outlineConnect=0;" vertex="1" parent="1">
          <mxGeometry x="490" y="525.7" width="30" height="54" as="geometry" />
        </mxCell>
        <mxCell id="6FY976Fx_J-TKB5thQEg-10" style="edgeStyle=orthogonalEdgeStyle;rounded=0;orthogonalLoop=1;jettySize=auto;html=1;entryX=0;entryY=0.5;entryDx=0;entryDy=0;entryPerimeter=0;dashed=1;flowAnimation=1;" edge="1" parent="1" target="6FY976Fx_J-TKB5thQEg-1">
          <mxGeometry relative="1" as="geometry">
            <mxPoint x="230" y="520" as="sourcePoint" />
            <mxPoint x="310" y="400" as="targetPoint" />
            <Array as="points">
              <mxPoint x="230" y="404" />
              <mxPoint x="310" y="404" />
              <mxPoint x="310" y="404" />
            </Array>
          </mxGeometry>
        </mxCell>
        <mxCell id="6FY976Fx_J-TKB5thQEg-15" value="enviar arquivo" style="edgeLabel;html=1;align=center;verticalAlign=middle;resizable=0;points=[];" vertex="1" connectable="0" parent="6FY976Fx_J-TKB5thQEg-10">
          <mxGeometry x="-0.55" y="-2" relative="1" as="geometry">
            <mxPoint as="offset" />
          </mxGeometry>
        </mxCell>
        <mxCell id="6FY976Fx_J-TKB5thQEg-14" value="EC2" style="verticalLabelPosition=bottom;html=1;verticalAlign=top;strokeWidth=1;align=center;outlineConnect=0;dashed=0;outlineConnect=0;shape=mxgraph.aws3d.application_server;fillColor=#ECECEC;strokeColor=#5E5E5E;aspect=fixed;strokeColor2=#292929;" vertex="1" parent="1">
          <mxGeometry x="540" y="360" width="86.79" height="87.5" as="geometry" />
        </mxCell>
        <mxCell id="6FY976Fx_J-TKB5thQEg-19" value="E - EBS" style="outlineConnect=0;dashed=0;verticalLabelPosition=bottom;verticalAlign=top;align=center;html=1;shape=mxgraph.aws3.volume;fillColor=#E05243;gradientColor=none;" vertex="1" parent="1">
          <mxGeometry x="760" y="366.25" width="52.5" height="75" as="geometry" />
        </mxCell>
        <mxCell id="6FY976Fx_J-TKB5thQEg-20" style="edgeStyle=orthogonalEdgeStyle;rounded=0;orthogonalLoop=1;jettySize=auto;html=1;entryX=0;entryY=0.5;entryDx=0;entryDy=0;entryPerimeter=0;dashed=1;flowAnimation=1;" edge="1" parent="1" source="6FY976Fx_J-TKB5thQEg-14" target="6FY976Fx_J-TKB5thQEg-19">
          <mxGeometry relative="1" as="geometry" />
        </mxCell>
        <mxCell id="6FY976Fx_J-TKB5thQEg-21" value="" style="outlineConnect=0;dashed=0;verticalLabelPosition=bottom;verticalAlign=top;align=center;html=1;shape=mxgraph.aws3.rds;fillColor=#2E73B8;gradientColor=none;" vertex="1" parent="1">
          <mxGeometry x="660" y="220" width="72" height="81" as="geometry" />
        </mxCell>
        <mxCell id="6FY976Fx_J-TKB5thQEg-22" style="edgeStyle=orthogonalEdgeStyle;rounded=0;orthogonalLoop=1;jettySize=auto;html=1;entryX=0;entryY=0.5;entryDx=0;entryDy=0;entryPerimeter=0;dashed=1;flowAnimation=1;" edge="1" parent="1" source="6FY976Fx_J-TKB5thQEg-14" target="6FY976Fx_J-TKB5thQEg-21">
          <mxGeometry relative="1" as="geometry">
            <Array as="points">
              <mxPoint x="583" y="260" />
            </Array>
          </mxGeometry>
        </mxCell>
        <mxCell id="6FY976Fx_J-TKB5thQEg-23" value="RDS" style="edgeLabel;html=1;align=center;verticalAlign=middle;resizable=0;points=[];" vertex="1" connectable="0" parent="6FY976Fx_J-TKB5thQEg-22">
          <mxGeometry x="-0.2839" y="1" relative="1" as="geometry">
            <mxPoint as="offset" />
          </mxGeometry>
        </mxCell>
        <mxCell id="6FY976Fx_J-TKB5thQEg-28" style="edgeStyle=orthogonalEdgeStyle;rounded=0;orthogonalLoop=1;jettySize=auto;html=1;entryX=1;entryY=0.5;entryDx=0;entryDy=0;entryPerimeter=0;dashed=1;flowAnimation=1;" edge="1" parent="1" source="6FY976Fx_J-TKB5thQEg-14" target="6FY976Fx_J-TKB5thQEg-1">
          <mxGeometry relative="1" as="geometry" />
        </mxCell>
        <mxCell id="6FY976Fx_J-TKB5thQEg-29" style="edgeStyle=orthogonalEdgeStyle;rounded=0;orthogonalLoop=1;jettySize=auto;html=1;entryX=1.028;entryY=0.445;entryDx=0;entryDy=0;entryPerimeter=0;" edge="1" parent="1" source="6FY976Fx_J-TKB5thQEg-3" target="6FY976Fx_J-TKB5thQEg-2">
          <mxGeometry relative="1" as="geometry" />
        </mxCell>
      </root>
    </mxGraphModel>
  </diagram>
</mxfile>
